# Blender v2.83.5 OBJ File: 'simple_bed.blend'
# www.blender.org
mtllib bedz_simple_bed.mtl
o bed_converted_out
v 0.500000 -0.125000 -0.500000
v 0.500000 -0.125000 1.500000
v 0.500000 0.125000 1.500000
v 0.500000 0.125000 -0.500000
v -0.500000 -0.125000 -0.500000
v -0.500000 -0.125000 1.500000
v -0.500000 0.125000 1.500000
v -0.500000 0.125000 -0.500000
v 0.437500 -0.500000 -0.437500
v 0.437500 -0.500000 -0.312500
v 0.437500 -0.125000 -0.312500
v 0.437500 -0.125000 -0.437500
v 0.312500 -0.500000 -0.437500
v 0.312500 -0.500000 -0.312500
v 0.312500 -0.125000 -0.312500
v 0.312500 -0.125000 -0.437500
v 0.437500 0.125000 1.312500
v 0.437500 0.125000 1.437468
v 0.437500 0.500000 1.437468
v 0.437500 0.500000 1.312500
v 0.312500 0.125000 1.312500
v 0.312500 0.125000 1.437468
v 0.312500 0.500000 1.437468
v 0.312500 0.500000 1.312500
v -0.312500 0.125000 1.312500
v -0.312500 0.125000 1.437500
v -0.312500 0.500000 1.437500
v -0.312500 0.500000 1.312500
v -0.437500 0.125000 1.312500
v -0.437500 0.125000 1.437500
v -0.437500 0.500000 1.437500
v -0.437500 0.500000 1.312500
v 0.312500 0.250000 1.312500
v 0.312500 0.250000 1.437500
v 0.312500 0.375000 1.437500
v 0.312500 0.375000 1.312500
v -0.312500 0.250000 1.312500
v -0.312500 0.250000 1.437500
v -0.312500 0.375000 1.437500
v -0.312500 0.375000 1.312500
v -0.312500 -0.500000 -0.437500
v -0.312500 -0.500000 -0.312500
v -0.312500 -0.125000 -0.312500
v -0.312500 -0.125000 -0.437500
v -0.437500 -0.500000 -0.437500
v -0.437500 -0.500000 -0.312500
v -0.437500 -0.125000 -0.312500
v -0.437500 -0.125000 -0.437500
v 0.437500 -0.500000 1.312500
v 0.437500 -0.500000 1.437500
v 0.437500 -0.125000 1.437500
v 0.437500 -0.125000 1.312500
v 0.312500 -0.500000 1.312500
v 0.312500 -0.500000 1.437500
v 0.312500 -0.125000 1.437500
v 0.312500 -0.125000 1.312500
v -0.312500 -0.500000 1.312500
v -0.312500 -0.500000 1.437500
v -0.312500 -0.125000 1.437500
v -0.312500 -0.125000 1.312500
v -0.437500 -0.500000 1.312500
v -0.437500 -0.500000 1.437500
v -0.437500 -0.125000 1.437500
v -0.437500 -0.125000 1.312500
vt 0.468750 0.000000
vt 0.468750 1.000000
vt 0.593750 1.000000
vt 0.593750 0.000000
vt 0.468750 0.000000
vt 0.468750 1.000000
vt 0.593750 1.000000
vt 0.593750 0.000000
vt 0.468750 0.062500
vt 0.593750 0.062500
vt 0.593750 0.500000
vt 0.468750 0.500000
vt 0.000000 0.437500
vt 0.000000 0.312500
vt 0.500000 0.312500
vt 0.500000 0.437500
vt 0.500000 0.000000
vt 0.500000 1.000000
vt 0.000000 1.000000
vt 0.000000 0.000000
vt 1.000000 0.000000
vt 1.000000 1.000000
vt 0.500000 1.000000
vt 0.500000 0.000000
vt 0.312500 0.812500
vt 0.375000 0.812500
vt 0.375000 1.000000
vt 0.312500 1.000000
vt 0.093750 0.812500
vt 0.156250 0.812500
vt 0.156250 1.000000
vt 0.093750 1.000000
vt 0.125000 0.812500
vt 0.125000 1.000000
vt 0.062500 1.000000
vt 0.062500 0.812500
vt 0.500000 0.812500
vt 0.500000 1.000000
vt 0.437500 1.000000
vt 0.437500 0.812500
vt 0.218750 0.593750
vt 0.218750 0.531250
vt 0.281250 0.531250
vt 0.281250 0.593750
vt 0.437500 0.187500
vt 0.375000 0.187500
vt 0.375000 0.000000
vt 0.437500 0.000000
vt 0.093750 0.187500
vt 0.031250 0.187500
vt 0.031250 0.000000
vt 0.093750 0.000000
vt 0.062500 0.187500
vt 0.062500 0.000000
vt 0.125000 0.000000
vt 0.125000 0.187500
vt 0.218750 0.187500
vt 0.218750 0.000000
vt 0.281250 0.000000
vt 0.281250 0.187500
vt 0.187500 0.750000
vt 0.187500 0.687500
vt 0.250000 0.687500
vt 0.250000 0.750000
vt 0.187500 0.187500
vt 0.125000 0.187500
vt 0.125000 0.000000
vt 0.187500 0.000000
vt 0.093750 0.687500
vt 0.031250 0.687500
vt 0.031250 0.500000
vt 0.093750 0.500000
vt 0.375000 0.687500
vt 0.375000 0.500000
vt 0.437500 0.500000
vt 0.437500 0.687500
vt 0.218750 0.468750
vt 0.218750 0.656250
vt 0.156250 0.656250
vt 0.156250 0.468750
vt 0.062500 0.625000
vt 0.062500 0.562500
vt 0.125000 0.562500
vt 0.125000 0.625000
vt 0.062500 0.312500
vt 0.125000 0.312500
vt 0.125000 0.625000
vt 0.062500 0.625000
vt 0.062500 0.687500
vt 0.125000 0.687500
vt 0.125000 1.000000
vt 0.062500 1.000000
vt 0.375000 0.312500
vt 0.437500 0.312500
vt 0.437500 0.625000
vt 0.375000 0.625000
vt 0.281250 0.562500
vt 0.343750 0.562500
vt 0.343750 0.875000
vt 0.281250 0.875000
vt 0.343750 0.593750
vt 0.406250 0.593750
vt 0.406250 0.781250
vt 0.343750 0.781250
vt 0.156250 0.812500
vt 0.093750 0.812500
vt 0.093750 0.625000
vt 0.156250 0.625000
vt 0.312500 0.812500
vt 0.312500 0.625000
vt 0.375000 0.625000
vt 0.375000 0.812500
vt 0.218750 0.812500
vt 0.218750 0.625000
vt 0.281250 0.625000
vt 0.281250 0.812500
vt 0.343750 0.218750
vt 0.343750 0.156250
vt 0.406250 0.156250
vt 0.406250 0.218750
vt 0.312500 0.531250
vt 0.375000 0.531250
vt 0.375000 0.718750
vt 0.312500 0.718750
vt 0.406250 0.531250
vt 0.468750 0.531250
vt 0.468750 0.718750
vt 0.406250 0.718750
vt 0.343750 0.531250
vt 0.343750 0.718750
vt 0.281250 0.718750
vt 0.281250 0.531250
vt 0.125000 0.531250
vt 0.125000 0.718750
vt 0.062500 0.718750
vt 0.062500 0.531250
vt 0.312500 0.375000
vt 0.312500 0.312500
vt 0.375000 0.312500
vt 0.375000 0.375000
vt 0.375000 0.250000
vt 0.437500 0.250000
vt 0.437500 0.437500
vt 0.375000 0.437500
vt 0.312500 0.250000
vt 0.375000 0.250000
vt 0.375000 0.437500
vt 0.312500 0.437500
vt 0.500000 0.250000
vt 0.500000 0.437500
vt 0.437500 0.437500
vt 0.437500 0.250000
vt 0.125000 0.250000
vt 0.125000 0.437500
vt 0.062500 0.437500
vt 0.062500 0.250000
vt 0.156250 0.406250
vt 0.156250 0.343750
vt 0.218750 0.343750
vt 0.218750 0.406250
vn -1.0000 0.0000 0.0000
vn 0.0000 0.0000 1.0000
vn 0.0000 -1.0000 -0.0000
usemtl none
s off
f 1/1/1 2/2/1 3/3/1 4/4/1
f 5/5/1 6/6/1 7/7/1 8/8/1
f 1/9/2 4/10/2 8/11/2 5/12/2
f 2/13/2 3/14/2 7/15/2 6/16/2
f 1/17/3 2/18/3 6/19/3 5/20/3
f 4/21/3 3/22/3 7/23/3 8/24/3
f 9/25/1 10/26/1 11/27/1 12/28/1
f 13/29/1 14/30/1 15/31/1 16/32/1
f 9/33/2 12/34/2 16/35/2 13/36/2
f 10/37/2 11/38/2 15/39/2 14/40/2
f 9/41/3 10/42/3 14/43/3 13/44/3
f 17/45/1 18/46/1 19/47/1 20/48/1
f 21/49/1 22/50/1 23/51/1 24/52/1
f 17/53/2 20/54/2 24/55/2 21/56/2
f 18/57/2 19/58/2 23/59/2 22/60/2
f 20/61/3 19/62/3 23/63/3 24/64/3
f 25/65/1 26/66/1 27/67/1 28/68/1
f 29/69/1 30/70/1 31/71/1 32/72/1
f 25/73/2 28/74/2 32/75/2 29/76/2
f 26/77/2 27/78/2 31/79/2 30/80/2
f 28/81/3 27/82/3 31/83/3 32/84/3
f 33/85/2 36/86/2 40/87/2 37/88/2
f 34/89/2 35/90/2 39/91/2 38/92/2
f 33/93/3 34/94/3 38/95/3 37/96/3
f 36/97/3 35/98/3 39/99/3 40/100/3
f 41/101/1 42/102/1 43/103/1 44/104/1
f 45/105/1 46/106/1 47/107/1 48/108/1
f 41/109/2 44/110/2 48/111/2 45/112/2
f 42/113/2 43/114/2 47/115/2 46/116/2
f 41/117/3 42/118/3 46/119/3 45/120/3
f 49/121/1 50/122/1 51/123/1 52/124/1
f 53/125/1 54/126/1 55/127/1 56/128/1
f 49/129/2 52/130/2 56/131/2 53/132/2
f 50/133/2 51/134/2 55/135/2 54/136/2
f 49/137/3 50/138/3 54/139/3 53/140/3
f 57/141/1 58/142/1 59/143/1 60/144/1
f 61/145/1 62/146/1 63/147/1 64/148/1
f 57/149/2 60/150/2 64/151/2 61/152/2
f 58/153/2 59/154/2 63/155/2 62/156/2
f 57/157/3 58/158/3 62/159/3 61/160/3
