# Blender v2.83.5 OBJ File: 'potz_pot.blend'
# www.blender.org
mtllib potz_pot.mtl
o converted_out
v 0.250000 -0.500000 -0.250000
v 0.250000 -0.500000 0.250000
v 0.250000 -0.187500 0.250000
v 0.250000 -0.187500 -0.250000
v -0.250000 -0.500000 -0.250000
v -0.250000 -0.500000 0.250000
v -0.250000 -0.187500 0.250000
v -0.250000 -0.187500 -0.250000
v 0.312500 -0.187500 -0.312500
v 0.312500 -0.187500 0.312500
v 0.312500 -0.062500 0.312500
v 0.312500 -0.062500 -0.312500
v 0.250000 -0.187500 -0.250000
v 0.250000 -0.187500 0.250000
v 0.250000 -0.062500 0.250000
v 0.250000 -0.062500 -0.250000
v -0.250000 -0.187500 -0.250000
v -0.250000 -0.187500 0.250000
v -0.250000 -0.062500 0.250000
v -0.250000 -0.062500 -0.250000
v -0.312500 -0.187500 -0.312500
v -0.312500 -0.187500 0.312500
v -0.312500 -0.062500 0.312500
v -0.312500 -0.062500 -0.312500
v 0.250000 -0.187500 0.250000
v 0.312500 -0.187500 0.312500
v 0.312500 -0.062500 0.312500
v 0.250000 -0.062500 0.250000
v -0.250000 -0.187500 0.250000
v -0.312500 -0.187500 0.312500
v -0.312500 -0.062500 0.312500
v -0.250000 -0.062500 0.250000
v 0.312500 -0.187500 -0.312500
v 0.250000 -0.187500 -0.250000
v 0.250000 -0.062500 -0.250000
v 0.312500 -0.062500 -0.312500
v -0.312500 -0.187500 -0.312500
v -0.250000 -0.187500 -0.250000
v -0.250000 -0.062500 -0.250000
v -0.312500 -0.062500 -0.312500
v 0.000000 -0.187500 -0.312500
v 0.000000 -0.187500 0.312500
v 0.000000 0.500000 0.312500
v 0.000000 0.500000 -0.312500
v 0.000000 -0.187500 -0.312500
v 0.000000 -0.187500 0.312500
v 0.000000 0.500000 0.312500
v 0.000000 0.500000 -0.312500
v 0.312500 -0.187500 -0.000000
v 0.312500 -0.187500 -0.000000
v 0.312500 0.500000 0.000000
v 0.312500 0.500000 0.000000
v -0.312500 -0.187500 -0.000000
v -0.312500 -0.187500 -0.000000
v -0.312500 0.500000 0.000000
v -0.312500 0.500000 0.000000
vt 0.000000 0.250000
vt 0.000000 0.000000
vt 0.125000 0.000000
vt 0.125000 0.250000
vt 0.000000 0.250000
vt 0.000000 0.000000
vt 0.125000 0.000000
vt 0.125000 0.250000
vt 0.125000 0.250000
vt 0.000000 0.250000
vt 0.000000 0.000000
vt 0.125000 0.000000
vt 0.187500 0.250000
vt 0.000000 0.250000
vt 0.000000 0.000000
vt 0.187500 0.000000
vt 0.750000 0.250000
vt 0.750000 0.000000
vt 1.000000 0.000000
vt 1.000000 0.250000
vt 0.750000 1.000000
vt 0.750000 0.750000
vt 1.000000 0.750000
vt 1.000000 1.000000
vt 0.937500 0.625000
vt 0.937500 0.312500
vt 1.000000 0.312500
vt 1.000000 0.625000
vt 0.937500 0.562500
vt 0.937500 0.375000
vt 1.000000 0.375000
vt 1.000000 0.562500
vt 1.000000 0.375000
vt 1.000000 0.625000
vt 0.937500 0.625000
vt 0.937500 0.375000
vt 0.937500 0.625000
vt 0.937500 0.375000
vt 1.000000 0.375000
vt 1.000000 0.625000
vt 0.937500 0.687500
vt 0.937500 0.375000
vt 1.000000 0.375000
vt 1.000000 0.687500
vt 1.000000 0.375000
vt 1.000000 0.625000
vt 0.937500 0.562500
vt 0.937500 0.312500
vt 1.000000 0.312500
vt 1.000000 0.562500
vt 0.937500 0.625000
vt 0.937500 0.375000
vt 1.000000 0.625000
vt 1.000000 0.625000
vt 0.937500 0.625000
vt 0.937500 0.375000
vt 1.000000 0.375000
vt 0.937500 0.375000
vt 1.000000 0.375000
vt 1.000000 0.687500
vt 0.937500 0.687500
vt 0.937500 0.625000
vt 0.937500 0.375000
vt 1.000000 0.375000
vt 1.000000 0.625000
vt 0.937500 0.625000
vt 0.937500 0.375000
vt 0.937500 0.375000
vt 1.000000 0.375000
vt 1.000000 0.687500
vt 0.937500 0.687500
vt 1.000000 0.687500
vt 0.937500 0.687500
vt 0.937500 0.437500
vt 1.000000 0.437500
vt 1.000000 0.562500
vt 0.937500 0.562500
vt 0.937500 0.312500
vt 1.000000 0.312500
vt 0.588235 0.323529
vt 0.294118 0.323529
vt 0.294118 0.000000
vt 0.588235 0.000000
vt 0.312500 1.000000
vt 0.000000 1.000000
vt 0.000000 0.687500
vt 0.312500 0.687500
vt 0.000000 0.000000
vt 0.000000 0.000000
vt 0.000000 0.000000
vt 0.000000 0.000000
vt 0.000000 0.000000
vt 0.000000 0.000000
vt 0.000000 0.000000
vt 0.000000 0.000000
vt 0.000000 0.000000
vt 0.000000 0.000000
vt 0.000000 0.000000
vt 0.000000 0.000000
vt 0.000000 0.000000
vt 0.000000 0.000000
vt 0.000000 0.000000
vt 0.000000 0.000000
vt 0.588235 0.323529
vt 0.588235 0.647059
vt 0.294118 0.647059
vt 0.294118 0.323529
vt 0.312500 0.687500
vt 0.312500 1.000000
vt 0.000000 1.000000
vt 0.000000 0.687500
vt 1.000000 0.437500
vt 1.000000 0.687500
vn -1.0000 0.0000 0.0000
vn 0.0000 -0.0000 1.0000
vn 0.0000 -1.0000 0.0000
usemtl none
s off
f 1/1/1 2/2/1 3/3/1 4/4/1
f 5/5/1 6/6/1 7/7/1 8/8/1
f 1/9/2 4/10/2 8/11/2 5/12/2
f 2/13/2 3/14/2 7/15/2 6/16/2
f 1/17/3 2/18/3 6/19/3 5/20/3
f 4/21/3 3/22/3 7/23/3 8/24/3
f 9/25/1 10/26/1 11/27/1 12/28/1
f 13/29/1 14/30/1 15/31/1 16/32/1
f 9/33/3 10/34/3 14/35/3 13/36/3
f 17/37/1 18/38/1 19/39/1 20/40/1
f 21/41/1 22/42/1 23/43/1 24/44/1
f 17/37/3 18/38/3 22/45/3 21/46/3
f 27/47/3 31/48/3 32/49/3 28/50/3
f 20/51/3 19/52/3 23/43/3 24/53/3
f 25/54/2 28/55/2 32/56/2 29/57/2
f 26/58/2 27/59/2 31/60/2 30/61/2
f 25/54/3 26/62/3 30/63/3 29/57/3
f 12/64/3 11/65/3 15/66/3 16/67/3
f 33/68/2 36/69/2 40/70/2 37/71/2
f 34/72/2 35/73/2 39/74/2 38/75/2
f 33/76/3 34/77/3 38/78/3 37/79/3
f 41/80/1 42/81/1 43/82/1 44/83/1
f 45/84/1 46/85/1 47/86/1 48/87/1
f 41/88/2 44/89/2 48/90/2 45/91/2
f 42/92/2 43/93/2 47/94/2 46/95/2
f 41/88/2 42/92/2 46/95/2 45/91/2
f 44/89/2 43/93/2 47/94/2 48/90/2
f 49/96/2 50/97/2 51/98/2 52/99/2
f 53/100/2 54/101/2 55/102/2 56/103/2
f 49/104/2 52/105/2 56/106/2 53/107/2
f 50/108/2 51/109/2 55/110/2 54/111/2
f 49/96/2 50/97/2 54/101/2 53/100/2
f 52/99/2 51/98/2 55/102/2 56/103/2
f 40/112/3 36/113/3 35/73/3 39/74/3
